<svg xmlns="http://www.w3.org/2000/svg" xmlns:xlink="http://www.w3.org/1999/xlink" viewBox="0 0 300 300" style="enable-background:new 0 0 300 300" xml:space="preserve"><defs><path id="a" d="M11.2 23.1h277.6v253.7H11.2z"/></defs><clipPath id="b"><use xlink:href="#a" style="overflow:visible"/></clipPath><path d="M116.4 41.2C97.9 22.9 70.6 18.6 48.1 28.5l32.7 32.4c8.8 8.7 8.8 22.8 0 31.4-8.8 8.7-23 8.7-31.8 0L16.4 59.9c-9.9 22.4-5.6 49.4 12.9 67.8 15.8 15.7 38 21 58.1 16.1l20.3 20.2 3.8-3.8c1.2-1.2 2.5-2.2 4-3.1-.7-.5-1.4-1-2-1.6l-.3-.2-.4-.4-.4-.4c-1.4-1.4-2.7-3-3.8-4.9-1.4-2.3-2.4-4.7-3-7.3-2.1-8.8.4-17.8 6.7-24l.2-.2.3-.2 5.9-5.2 12-11.9c.7-.6 1.4-1.3 2.1-1.8l-.1-.1c4.8-20-.5-42-16.3-57.7zM257 222.4l-78.4-77.8h-19.2l-10.7 10c-1.7 1.6-3.6 3-5.6 4.1.2.1.4.3.5.4l.1.1.6.4.5.5c1.7 1.7 3.1 3.6 4.2 5.7 1.1-.1 2.2-.2 3.3-.2 6.3 0 12.2 2.4 16.6 6.8 4.1 4.1 6.4 9.4 6.8 14.8 3.4 1.2 6.6 3 9.2 5.6 5.1 5.1 7.3 11.8 6.8 18.4 1.2.7 2.4 1.5 3.6 2.5 4.8 4 7.8 9.6 8.3 15.8.6 6.2-1.3 12.2-5.4 17l-3.4 4 16.9 16.7c6.2 6.2 14.4 9.3 22.6 9.3 8.2 0 16.4-3.1 22.6-9.3 12.5-12.3 12.5-32.4.1-44.8zm-68.9-.2c-2.5-2.1-5.8-3.1-9.1-2.8l-3.7.4 2.4-2.8c4.1-4.8 3.8-11.9-.7-16.3-3.3-3.3-8.4-4.4-12.8-2.8l-4.3 1.5 2.6-3.8c3.3-4.8 2.7-11.2-1.5-15.4-2.3-2.3-5.4-3.5-8.6-3.5-3.2 0-6.3 1.3-8.6 3.5l-5.8 5.7 1.8-5.7c1.4-4.3.3-9-2.9-12.2l-.4-.3c-2.3-2.1-5.2-3.3-8.3-3.3-.8 0-1.7.1-2.8.4-2.3.5-4.3 1.6-5.9 3.2l-14.7 14.6c-.3.4-.6.7-.9 1.1l-.2.2c-3.7 4.8-3.2 11.6 1.1 15.8 3.6 3.5 9.1 4.7 14 2.3l3.9-1.9-1.9 3.9c-2.3 4.7-1.4 10.2 2.3 13.9 3.6 3.5 9 4.7 14 2.3l3.9-1.9-1.9 3.8c-2.3 4.7-1.4 10.2 2.3 13.9 3.5 3.5 9 4.7 13.9 2.3l3.9-1.8-1.9 3.8c-2.5 5-1.1 11 3.1 14.6 2.2 1.9 5 2.8 7.8 2.8 3.4 0 6.7-1.4 9-4l.3-.3 12-14.1c2.1-2.5 3.1-5.6 2.8-8.9-.2-3.2-1.7-6.1-4.2-8.2zm95.7-111L241 68.7l-36.3 36h-.7c-.2 0-.4 0-.6-.1H149c-3.9 0-7.5 1.5-10.3 4.2l-12.2 12.1-6.2 5.4c-3.5 3.5-4.9 8.5-3.7 13.5.4 1.4.9 2.8 1.7 4.1.7 1.1 1.4 2 2.1 2.7l.5.4c2.7 2.5 6.2 3.8 9.8 3.8.3 0 .6 0 .9-.1h.5c3.4-.4 6.5-1.8 8.8-4.1l14.1-13.2h30.6l11 10.5 38.8 38.4 48.4-48c6.4-6.4 6.4-16.7 0-23.1zm0 0" style="clip-path:url(#b)"/></svg>