<svg xmlns="http://www.w3.org/2000/svg" xmlns:xlink="http://www.w3.org/1999/xlink" viewBox="0 0 300 300" style="enable-background:new 0 0 300 300" xml:space="preserve"><defs><path id="a" d="M5 57.6h289.9v184.8H5z"/></defs><clipPath id="b"><use xlink:href="#a" style="overflow:visible"/></clipPath><path d="M97.1 215.6c0 14.5-11.7 26.4-26.4 26.4-14.5 0-26.4-11.7-26.4-26.4 0-14.5 11.7-26.4 26.4-26.4 14.5.1 26.4 12 26.4 26.4zm157.8 0c0 14.5-11.7 26.4-26.4 26.4-14.5 0-26.4-11.7-26.4-26.4 0-14.5 11.7-26.4 26.4-26.4 14.5.1 26.4 12 26.4 26.4zM11.6 57.8h144.7c3.7 0 6.6 2.9 6.6 6.6v111.7H176V77.6c0-3.7 2.9-6.6 6.6-6.6h52.7c3.5 0 8.5 2.1 11.1 4.7l46.9 63c1 3.4 1.3 9.3 1.3 13v57.4c0 3.7-2.9 6.6-6.6 6.6h-19.8c0-21.9-17.7-39.4-39.4-39.4-21.9 0-39.4 17.7-39.4 39.4h-78.9c0-21.9-17.7-39.4-39.4-39.4-21.9 0-39.4 17.7-39.4 39.4H11.6c-3.7 0-6.6-2.9-6.6-6.6V64.4c0-3.5 2.9-6.6 6.6-6.6zM195 130.1c0 3.7 2.9 6.6 6.6 6.6h62.2c3.7 0 4.8-2.4 2.9-5.3L243 96.9c-2.1-2.9-6.6-5.3-10.3-5.3h-31.3c-3.7 0-6.6 2.9-6.6 6.6l.2 31.9zm0 0" style="clip-path:url(#b)"/></svg>