<svg xmlns="http://www.w3.org/2000/svg" xmlns:xlink="http://www.w3.org/1999/xlink" viewBox="0 0 300 300" style="enable-background:new 0 0 300 300" xml:space="preserve"><defs><path id="a" d="M13.1 1.6h275.7v296.8H13.1z"/></defs><clipPath id="b"><use xlink:href="#a" style="overflow:visible"/></clipPath><path d="M178.6 198.8c-8.5 0-16.4-.5-23.7-1.4-3-.2-5.4-1.5-7.2-4-1.8-2.4-2.6-5.1-2.2-8.1.3-3 1.7-5.4 4-7.4s4.9-2.7 7.9-2.2c10.1.7 20.3.9 30.6.7 10.3-.2 20-1.7 29.1-4.5 9.1-2.8 14.7-6.4 17-11 1.4-2.8 3.5-4.6 6.4-5.7 2.9-1 5.7-.9 8.4.3 2.8 1.3 4.7 3.3 5.7 6.2 1 2.9.9 5.7-.5 8.4-9.3 19.2-34.4 28.8-75.5 28.7zm98.8-11c-3 0-5.6-1.1-7.7-3.3-2.2-2.2-3.3-4.8-3.3-7.7v-37.9l-14.8-5.5c-4.8-1.6-7.2-5.1-7.2-10.3 0-27.3-9.7-50.7-29.1-70-19.4-19.4-42.7-29.1-70-29.1-27.3 0-50.6 9.7-70 29.1-19.4 19.4-29.1 42.7-29.1 70 0 1.8-.4 3.6-1.2 5.2-.8 1.6-1.9 2.9-3.3 3.8l-6.5 4.8v39.9c0 3-1.1 5.6-3.3 7.7-2.2 2.2-4.8 3.3-7.7 3.3-3 0-5.6-1.1-7.7-3.3-2.2-2.2-3.3-4.8-3.3-7.7V131c0-1.1.2-2.3.5-3.4.3-1.2.9-2.2 1.6-3.1.7-.9 1.5-1.7 2.4-2.4l6.5-4.5c1.6-32.1 14.1-59.4 37.5-81.9C85 13.2 112.9 1.9 145.2 1.9c21.1 0 40.7 5 58.7 15.1s32.5 23.8 43.5 41.1 17.2 36.4 18.6 57.3l15.1 5.2c4.8 1.8 7.2 5.3 7.2 10.3v45.8c0 3-1.1 5.6-3.3 7.7-2 2.3-4.6 3.4-7.6 3.4zm-88.1 49.6V234c11-8.5 18.4-16.9 22-25.1-4.4.7-14.5 1-30.3 1h-6.2c-2.5 0-4.6.1-6.2.2-1.6.1-3.3.1-5.2 0-1.8-.1-3.4-.2-4.8-.2s-2.6-.1-3.8-.3c-6-.7-10.9-3.6-14.8-8.6-3.9-5-5.5-10.7-4.8-16.9.7-6 3.4-10.8 8.3-14.6 4.8-3.8 10.2-5.3 16.2-4.6 12.6 1.1 24.8 1.2 36.5.2s20.3-2.7 25.8-5c.2-4.8.3-14.5.3-28.9 0-11.5-1.7-21.9-5.2-31.3-3.4-9.4-8.4-17.4-14.8-23.9S188 64.4 178.7 60.9c-9.3-3.6-19.6-5.4-30.8-5.7H141c-9.2.2-17.6 1.5-25.3 3.8-7.7 2.3-14.5 5.6-20.5 10s-11 9.6-15.1 15.7-7.2 13.1-9.3 21c-2.1 7.9-3.1 16.6-3.1 26 0 8 .1 14.6.2 19.8.1 5.2.8 12.2 2.1 21.2s3 16.6 5.2 23.1c2.2 6.4 5.5 13.2 10 20.5 4.5 7.2 9.8 13.2 16 18.1v3.4c-22.9 3.4-41.6 9.5-56.1 18.2s-21.7 18.9-21.7 30.6c0 5.1 2.4 8.6 7.2 10.7 1.4.7 2.8 1 4.1 1h216.2c1.8 0 3.8-.6 6-1.7s4-2.6 5.3-4.5c1.4-1.8 2.1-3.7 2.1-5.5 0-11.7-6.9-21.9-20.7-30.6-13.7-9.1-31.9-15.2-54.3-18.6zm0 0" style="clip-path:url(#b);fill:#333"/></svg>